<?xml version="1.0" encoding="utf-8"?>
<!-- Generator: Adobe Illustrator 27.3.1, SVG Export Plug-In . SVG Version: 6.00 Build 0)  -->
<svg version="1.1" id="Layer_1" xmlns="http://www.w3.org/2000/svg" xmlns:xlink="http://www.w3.org/1999/xlink" x="0px" y="0px"
	 viewBox="0 0 1070 800" style="enable-background:new 0 0 1070 800; ;" xml:space="preserve">
<g>
	<path d="M577.8,154.51c11.33-2.04,22.76-3.91,34.3-3.94c17.45-0.04,34.96,2.27,51.57,7.71c18,4.97,34.11,14.95,48.77,26.29
		c16.21,13.44,29.13,30.59,38.72,49.27c1.36,2.7,2.9,5.34,3.6,8.31c-8.73,4.86-17.01,10.45-25.24,16.09
		c-4.95,3.44-10.2,6.51-14.57,10.71c-5.76-13.7-12.56-27.23-22.78-38.2c-22.38-24.83-57.62-36.52-90.53-32.05
		c-19,1.75-37.13,9.26-52.83,19.92c-14.8,10.01-26.55,24.05-35.23,39.58c-9.58,16.11-15.19,34.26-18.57,52.6
		c-3.89,20.51-4.07,41.47-3.28,62.26c-3.96-3-8.82-4.31-13.57-5.49c-12.49-3.05-25.21-5.32-38.08-5.8
		c-17.51-1.59-35.18-0.99-52.6,1.3c-10.58,1.17-20.99,3.56-31.05,7.02c-22.65,6.58-43.74,19.15-59.33,36.97
		c-8.65,9.31-16.01,19.79-21.83,31.08c-17.09,30.26-20.14,67.96-8.1,100.56c11.42,32.83,37.26,59.64,68.3,74.72
		c10.76,5.05,22.12,8.73,33.71,11.29c32.24,5.94,65.93,1.64,96.26-10.47c7.16-3.08,14.28-6.24,21.34-9.52
		c21.81-11.17,41.49-26.09,59.4-42.73c11.57-12.09,23.69-23.72,34.23-36.76c26.85-32.14,48.7-68.02,69.93-104
		c19.58-33.23,43.12-64.42,71.66-90.49c9.8-8.69,20.21-16.71,31.37-23.58c8.84-5.05,17.95-9.61,27.15-13.97
		c10.89-4.25,22.14-7.53,33.52-10.24c21.44-3.91,43.45-4.79,65.1-2.06c11.36,1.82,22.68,4,33.77,7.11
		c13.9,4.78,27.72,10.09,40.49,17.46c11.38,6.15,21.87,13.84,31.67,22.26c8.23,7.12,16.38,14.42,23.35,22.81
		c10.04,12.06,18.89,25.17,25.75,39.3c10.85,22.78,17.31,47.75,18.33,72.99c2.08,46.31-12.79,92.91-40.25,130.14
		c-10.42,13.78-22.49,26.31-35.87,37.23c-17.83,14.84-38.71,25.83-60.75,32.95c-13.06,4.76-26.73,7.61-40.56,8.79
		c-7.6,1.26-15.33,0.7-22.98,0.61c-13.44-0.28-26.8-2.12-39.88-5.15c-13.87-2.74-26.99-8.26-39.97-13.74
		c-15.12-6.26-28.77-15.41-42.31-24.48c-22.09-15.96-41.89-35.06-58.73-56.48c-0.68-0.91-1.85-2.32-0.96-3.42
		c9.57-13.18,19.32-26.36,26.85-40.84c19.37,27.03,42.85,51.51,70.94,69.56c6.36,3.69,12.67,7.51,19.2,10.91
		c6.75,2.94,13.58,5.7,20.43,8.4c15.32,4.92,31.29,7.58,47.34,8.42c14.92,0.05,29.73-2.68,43.93-7.14
		c24.59-7.37,46.98-21.69,64.45-40.46c31.64-34.2,47.73-82.93,40.17-129.17c-4.72-29.43-19.48-57.02-40.9-77.69
		c-9.92-9.88-21.05-18.51-32.96-25.85c-12.6-7.3-26.37-12.45-40.44-16.1c-20.9-3.86-42.86-2.97-63.16,3.5
		c-16.83,4.52-32.58,12.39-47.14,21.87c-17.78,11.02-33.56,24.96-47.99,40.04c-10.85,11.57-21.44,23.48-30.25,36.72
		c-12.84,17.92-22.86,37.65-35.06,56c-9.3,14.86-19.07,29.44-29.73,43.37c-10.98,15.75-23.8,30.09-36.55,44.41
		c-25.36,27.34-54.04,52.22-87.32,69.44c-15.37,8.22-31.3,15.67-48.25,20c-16.2,4.8-32.89,7.77-49.71,9.29
		c-23.96,2.83-48.25-0.06-71.57-5.85c-10.46-2.42-20.49-6.36-30.44-10.34c-15.62-6.26-29.7-15.69-42.84-26.08
		c-9.12-8.27-18.13-16.8-25.32-26.85c-9.84-13.89-18.29-28.92-23.61-45.14c-13.58-40.22-11.56-85.14,4.47-124.34
		c5.23-13.79,12.51-26.74,20.98-38.78c11.69-17.07,26.82-31.56,43.39-43.83c19.43-14.06,41.73-24.14,65.1-29.53
		c31.78-7.15,65.25-6.69,96.87,1.11c0.09-7.15-0.1-14.3,0.16-21.45c2.85-40.82,20.78-80.94,51.05-108.77
		C523.3,174.4,549.71,160.63,577.8,154.51z"/>
</g>
</svg>
